<?xml version="1.0" encoding="UTF-8"?>
<svg width="48px" height="48px" viewBox="0 0 48 48" version="1.1" xmlns="http://www.w3.org/2000/svg" xmlns:xlink="http://www.w3.org/1999/xlink">
    <title>Group 6</title>
    <g id="Page-1" stroke="none" stroke-width="1" fill="none" fill-rule="evenodd">
        <g id="Apple-TV" transform="translate(-1447.000000, -4211.000000)">
            <g id="Group-6" transform="translate(1447.000000, 4211.000000)">
                <circle id="Oval" fill="#D6E7FD" cx="24" cy="24" r="24"></circle>
                <g id="calendar" transform="translate(13.000000, 13.000000)" fill="#036AF5" fill-rule="nonzero">
                    <path d="M13.33,16.33 C13.53,16.33 13.66,16.29 13.74,16.22 C13.82,16.15 13.85,16.01 13.85,15.82 L13.85,15.16 C13.85,14.96 13.81,14.83 13.74,14.76 C13.66,14.69 13.53,14.65 13.33,14.65 L12.67,14.65 C12.47,14.65 12.34,14.69 12.26,14.76 C12.18,14.83 12.15,14.97 12.15,15.16 L12.15,15.82 C12.15,16.02 12.19,16.15 12.26,16.22 C12.34,16.29 12.47,16.33 12.67,16.33 L13.33,16.33 Z M9.68,16.33 C9.88,16.33 10.01,16.29 10.09,16.22 C10.17,16.15 10.2,16.01 10.2,15.82 L10.2,15.16 C10.2,14.96 10.16,14.83 10.09,14.76 C10.01,14.69 9.88,14.65 9.68,14.65 L9.02,14.65 C8.82,14.65 8.69,14.69 8.61,14.76 C8.53,14.83 8.5,14.97 8.5,15.16 L8.5,15.82 C8.5,16.02 8.54,16.15 8.61,16.22 C8.69,16.29 8.82,16.33 9.02,16.33 L9.68,16.33 Z M6.02,16.33 C6.22,16.33 6.35,16.29 6.43,16.22 C6.51,16.15 6.55,16.01 6.55,15.82 L6.55,15.16 C6.55,14.96 6.51,14.83 6.43,14.76 C6.35,14.69 6.21,14.65 6.02,14.65 L5.37,14.65 C5.17,14.65 5.04,14.69 4.96,14.76 C4.88,14.83 4.85,14.97 4.85,15.16 L4.85,15.82 C4.85,16.02 4.89,16.15 4.96,16.22 C5.04,16.29 5.17,16.33 5.37,16.33 L6.02,16.33 Z M16.97,12.73 C17.17,12.73 17.3,12.69 17.38,12.62 C17.46,12.55 17.5,12.41 17.5,12.22 L17.5,11.58 C17.5,11.38 17.46,11.25 17.38,11.18 C17.3,11.11 17.16,11.07 16.97,11.07 L16.32,11.07 C16.12,11.07 15.99,11.11 15.91,11.18 C15.83,11.25 15.8,11.39 15.8,11.58 L15.8,12.22 C15.8,12.42 15.84,12.55 15.91,12.62 C15.99,12.69 16.12,12.73 16.32,12.73 L16.97,12.73 Z M13.32,12.73 C13.52,12.73 13.65,12.69 13.73,12.62 C13.81,12.55 13.84,12.41 13.84,12.22 L13.84,11.58 C13.84,11.38 13.8,11.25 13.73,11.18 C13.65,11.11 13.52,11.07 13.32,11.07 L12.66,11.07 C12.46,11.07 12.33,11.11 12.25,11.18 C12.17,11.25 12.14,11.39 12.14,11.58 L12.14,12.22 C12.14,12.42 12.18,12.55 12.25,12.62 C12.33,12.69 12.46,12.73 12.66,12.73 L13.32,12.73 Z M9.67,12.73 C9.87,12.73 10,12.69 10.08,12.62 C10.16,12.55 10.19,12.41 10.19,12.22 L10.19,11.58 C10.19,11.38 10.15,11.25 10.08,11.18 C10,11.11 9.87,11.07 9.67,11.07 L9.01,11.07 C8.81,11.07 8.68,11.11 8.6,11.18 C8.52,11.25 8.49,11.39 8.49,11.58 L8.49,12.22 C8.49,12.42 8.53,12.55 8.6,12.62 C8.67,12.69 8.81,12.73 9.01,12.73 L9.67,12.73 Z M6.01,12.73 C6.21,12.73 6.34,12.69 6.42,12.62 C6.5,12.55 6.54,12.41 6.54,12.22 L6.54,11.58 C6.54,11.38 6.5,11.25 6.42,11.18 C6.34,11.11 6.2,11.07 6.01,11.07 L5.36,11.07 C5.16,11.07 5.03,11.11 4.95,11.18 C4.87,11.25 4.84,11.39 4.84,11.58 L4.84,12.22 C4.84,12.42 4.88,12.55 4.95,12.62 C5.03,12.69 5.16,12.73 5.36,12.73 L6.01,12.73 Z M16.96,9.14 C17.16,9.14 17.29,9.1 17.37,9.03 C17.45,8.96 17.49,8.82 17.49,8.63 L17.49,7.97 C17.49,7.77 17.45,7.64 17.37,7.57 C17.29,7.5 17.15,7.46 16.96,7.46 L16.31,7.46 C16.11,7.46 15.98,7.5 15.9,7.57 C15.82,7.64 15.79,7.78 15.79,7.97 L15.79,8.63 C15.79,8.83 15.83,8.96 15.9,9.03 C15.98,9.1 16.11,9.14 16.31,9.14 L16.96,9.14 Z M13.31,9.14 C13.51,9.14 13.64,9.1 13.72,9.03 C13.8,8.96 13.83,8.82 13.83,8.63 L13.83,7.97 C13.83,7.77 13.79,7.64 13.72,7.57 C13.64,7.5 13.51,7.46 13.31,7.46 L12.65,7.46 C12.45,7.46 12.32,7.5 12.24,7.57 C12.16,7.64 12.13,7.78 12.13,7.97 L12.13,8.63 C12.13,8.83 12.17,8.96 12.24,9.03 C12.32,9.1 12.45,9.14 12.65,9.14 L13.31,9.14 Z M9.66,9.14 C9.86,9.14 9.99,9.1 10.07,9.03 C10.15,8.96 10.18,8.82 10.18,8.63 L10.18,7.97 C10.18,7.77 10.14,7.64 10.07,7.57 C9.99,7.5 9.86,7.46 9.66,7.46 L9,7.46 C8.8,7.46 8.67,7.5 8.59,7.57 C8.51,7.64 8.48,7.78 8.48,7.97 L8.48,8.63 C8.48,8.83 8.52,8.96 8.59,9.03 C8.67,9.1 8.8,9.14 9,9.14 L9.66,9.14 Z M18.83,18.55 L3.49,18.55 C3.01,18.55 2.65,18.42 2.4,18.17 C2.15,17.92 2.02,17.55 2.02,17.05 L2.02,6.75 C2.02,6.25 2.15,5.88 2.4,5.63 C2.65,5.38 3.02,5.25 3.49,5.25 L18.85,5.25 C19.33,5.25 19.69,5.37 19.95,5.63 C20.21,5.88 20.34,6.25 20.34,6.75 L20.34,17.06 C20.34,17.56 20.21,17.93 19.95,18.18 C19.69,18.43 19.32,18.56 18.85,18.56 L18.83,18.55 Z M18.76,20.56 C19.95,20.56 20.84,20.26 21.44,19.67 C22.04,19.08 22.34,18.2 22.34,17.03 L22.34,3.53 C22.34,2.37 22.04,1.49 21.44,0.89 C20.84,0.3 19.95,0 18.76,0 L3.57,0 C2.39,0 1.5,0.3 0.9,0.89 C0.3,1.48 0,2.36 0,3.53 L0,17.04 C0,18.21 0.3,19.09 0.9,19.68 C1.5,20.27 2.39,20.57 3.57,20.57 L18.78,20.57 L18.76,20.56 Z" id="Shape"></path>
                </g>
            </g>
        </g>
    </g>
</svg>