<?xml version="1.0" encoding="UTF-8"?>
<svg width="48px" height="48px" viewBox="0 0 48 48" version="1.1" xmlns="http://www.w3.org/2000/svg" xmlns:xlink="http://www.w3.org/1999/xlink">
    <title>Group 9</title>
    <g id="Page-1" stroke="none" stroke-width="1" fill="none" fill-rule="evenodd">
        <g id="Apple-TV" transform="translate(-607.000000, -4211.000000)">
            <g id="Group-9" transform="translate(607.000000, 4211.000000)">
                <circle id="Oval-Copy-3" fill="#D6E7FD" cx="24" cy="24" r="24"></circle>
                <g id="chat" transform="translate(8.000000, 11.000000)" fill="#036AF5" fill-rule="nonzero">
                    <path d="M25.39,25.5 C25.72,25.5 25.97,25.39 26.15,25.18 C26.33,24.97 26.42,24.68 26.42,24.32 L26.42,21.1 L27.58,21.1 C28.87,21.1 29.9,20.71 30.66,19.93 C31.43,19.15 31.81,18.1 31.81,16.77 L31.81,9.87 C31.81,8.53 31.42,7.5 30.65,6.76 C29.88,6.03 28.84,5.66 27.53,5.66 L16.28,5.66 C14.93,5.66 13.88,6.03 13.13,6.76 C12.38,7.49 12.01,8.54 12.01,9.89 L12.01,16.77 C12.01,18.1 12.39,19.15 13.13,19.93 C13.88,20.71 14.93,21.1 16.28,21.1 L20.01,21.1 L24.08,24.78 C24.35,25.02 24.57,25.2 24.77,25.32 C24.96,25.44 25.17,25.5 25.4,25.5 L25.39,25.5 Z M7.06,23.93 C7.29,23.93 7.51,23.87 7.7,23.76 C7.89,23.65 8.12,23.47 8.39,23.22 L11.58,20.28 C11.27,20.03 11,19.67 10.78,19.21 C10.56,18.75 10.45,18.08 10.45,17.19 L10.45,9.61 C10.45,8.46 10.67,7.48 11.12,6.65 C11.57,5.83 12.2,5.19 13.03,4.76 C13.86,4.32 14.85,4.1 15.99,4.1 L23.88,4.1 L23.88,3.71 C23.81,2.97 23.6,2.32 23.25,1.76 C22.9,1.2 22.42,0.77 21.81,0.46 C21.2,0.15 20.47,-1.77635684e-15 19.61,-1.77635684e-15 L4.29,-1.77635684e-15 C2.98,-1.77635684e-15 1.93,0.37 1.16,1.1 C0.39,1.84 0,2.87 0,4.21 L0,15.22 C0,16.55 0.38,17.6 1.15,18.37 C1.92,19.14 2.95,19.53 4.24,19.53 L6.04,19.53 L6.04,22.75 C6.04,23.11 6.13,23.39 6.31,23.61 C6.49,23.82 6.74,23.93 7.06,23.93 Z" id="Shape"></path>
                </g>
            </g>
        </g>
    </g>
</svg>