<?xml version="1.0" encoding="UTF-8"?>
<svg id="Layer_1" data-name="Layer 1" xmlns="http://www.w3.org/2000/svg" viewBox="0 0 54 47.75">
  <defs>
    <style>
      .cls-1 {
        opacity: .5;
      }

      .cls-1, .cls-2, .cls-3 {
        fill: #fff;
      }

      .cls-2 {
        opacity: .7;
      }

      .cls-3 {
        opacity: .25;
      }
    </style>
  </defs>
  <path class="cls-3" d="M27.01,15.75c.71,0,1.45-.13,2.24-.4,.79-.27,1.56-.56,2.31-.87L51.91,6.33c.62-.24,1.12-.62,1.51-1.14,.38-.52,.58-1.08,.58-1.69,0-1.02-.33-1.85-.99-2.51-.66-.66-1.46-.99-2.41-.99-.5,0-1.05,.11-1.65,.33-.6,.22-1.13,.42-1.59,.61L27.01,9.07,6.64,.94c-.46-.19-.98-.39-1.57-.61-.59-.22-1.15-.33-1.67-.33C2.45,0,1.65,.33,.99,.99c-.66,.66-.99,1.5-.99,2.51,0,.6,.19,1.17,.58,1.69,.39,.52,.89,.9,1.51,1.14L22.46,14.48c.76,.31,1.52,.6,2.3,.87,.78,.27,1.53,.4,2.25,.4Z"/>
  <path class="cls-1" d="M27.01,31.75c.71,0,1.45-.13,2.24-.4,.79-.27,1.56-.56,2.31-.87l20.35-8.15c.62-.24,1.12-.62,1.51-1.14,.38-.52,.58-1.08,.58-1.69,0-1.02-.33-1.85-.99-2.51-.66-.66-1.46-.99-2.41-.99-.5,0-1.05,.11-1.65,.33-.6,.22-1.13,.42-1.59,.61l-20.35,8.12L6.64,16.94c-.46-.19-.98-.39-1.57-.61-.59-.22-1.15-.33-1.67-.33-.95,0-1.75,.33-2.41,.99-.66,.66-.99,1.5-.99,2.51,0,.6,.19,1.17,.58,1.69,.39,.52,.89,.9,1.51,1.14l20.38,8.15c.76,.31,1.52,.6,2.3,.87,.78,.27,1.53,.4,2.25,.4Z"/>
  <path class="cls-2" d="M27.01,47.75c.71,0,1.45-.13,2.24-.4,.79-.27,1.56-.56,2.31-.87l20.35-8.15c.62-.24,1.12-.62,1.51-1.14,.38-.52,.58-1.08,.58-1.69,0-1.02-.33-1.85-.99-2.51-.66-.66-1.46-.99-2.41-.99-.5,0-1.05,.11-1.65,.33-.6,.22-1.13,.42-1.59,.61l-20.35,8.12L6.64,32.94c-.46-.19-.98-.39-1.57-.61-.59-.22-1.15-.33-1.67-.33-.95,0-1.75,.33-2.41,.99-.66,.66-.99,1.5-.99,2.51,0,.6,.19,1.17,.58,1.69,.39,.52,.89,.9,1.51,1.14l20.38,8.15c.76,.31,1.52,.6,2.3,.87,.78,.27,1.53,.4,2.25,.4Z"/>
</svg>