<?xml version="1.0" encoding="UTF-8"?>
<svg id="Layer_1" data-name="Layer 1" xmlns="http://www.w3.org/2000/svg" viewBox="0 0 15.26 12.57">
  <defs>
    <style>
      .cls-1 {
        fill: #2d2d2d;
      }
    </style>
  </defs>
  <path class="cls-1" d="M6.24,12.57c.66,0,1.1-.46,1.1-1.05,0-.33-.14-.6-.35-.8l-1.78-1.78-1.77-1.63,1.72,.09H14.11c.69,0,1.15-.45,1.15-1.11s-.46-1.11-1.15-1.11H5.15l-1.72,.1,1.77-1.63,1.78-1.79c.21-.21,.35-.46,.35-.8,0-.6-.44-1.05-1.1-1.05-.27,0-.55,.12-.79,.36L.34,5.46c-.21,.21-.34,.52-.34,.82s.13,.61,.34,.82l5.13,5.11c.23,.23,.5,.35,.77,.35Z"/>
</svg>