<?xml version="1.0" encoding="UTF-8"?>
<svg width="48px" height="48px" viewBox="0 0 48 48" version="1.1" xmlns="http://www.w3.org/2000/svg" xmlns:xlink="http://www.w3.org/1999/xlink">
    <title>Group 7</title>
    <g id="Page-1" stroke="none" stroke-width="1" fill="none" fill-rule="evenodd">
        <g id="Apple-TV" transform="translate(-1167.000000, -4211.000000)">
            <g id="Group-7" transform="translate(1167.000000, 4211.000000)">
                <circle id="Oval-Copy" fill="#D6E7FD" cx="24" cy="24" r="24"></circle>
                <g id="doc" transform="translate(16.000000, 11.000000)" fill="#036AF5" fill-rule="nonzero">
                    <path d="M13.79,19.39 L5.11,19.39 C4.88,19.39 4.69,19.32 4.55,19.18 C4.4,19.04 4.33,18.86 4.33,18.64 C4.33,18.42 4.4,18.25 4.55,18.1 C4.7,17.95 4.88,17.88 5.11,17.88 L13.79,17.88 C14.01,17.88 14.2,17.95 14.35,18.1 C14.5,18.25 14.58,18.43 14.58,18.64 C14.58,18.85 14.5,19.04 14.35,19.18 C14.2,19.32 14.01,19.39 13.79,19.39 Z M13.79,15.22 L5.11,15.22 C4.88,15.22 4.69,15.15 4.55,15 C4.4,14.85 4.33,14.67 4.33,14.46 C4.33,14.25 4.4,14.07 4.55,13.92 C4.7,13.77 4.88,13.7 5.11,13.7 L13.79,13.7 C14.01,13.7 14.2,13.77 14.35,13.92 C14.5,14.07 14.58,14.25 14.58,14.46 C14.58,14.67 14.5,14.85 14.35,15 C14.2,15.15 14.01,15.22 13.79,15.22 Z M18.74,8.78 C18.71,8.53 18.61,8.29 18.45,8.05 C18.29,7.81 18.06,7.55 17.78,7.27 L11.69,1.09 C11.42,0.81 11.17,0.59 10.92,0.42 C10.68,0.25 10.43,0.15 10.18,0.11 L10.18,8.15 C10.18,8.57 10.39,8.78 10.81,8.78 L18.74,8.78 L18.74,8.78 Z M15.33,23.9 C16.5,23.9 17.38,23.6 17.97,23 C18.56,22.4 18.86,21.51 18.86,20.33 L18.86,10.35 L10.69,10.35 C9.31,10.35 8.61,9.66 8.61,8.27 L8.61,0 L3.53,0 C2.37,0 1.49,0.3 0.89,0.9 C0.3,1.5 0,2.39 0,3.57 L0,20.34 C0,21.52 0.3,22.41 0.89,23.01 C1.48,23.61 2.36,23.91 3.53,23.91 L15.33,23.91 L15.33,23.9 Z" id="Shape"></path>
                </g>
            </g>
        </g>
    </g>
</svg>