<?xml version="1.0" encoding="UTF-8"?>
<svg id="Layer_1" data-name="Layer 1" xmlns="http://www.w3.org/2000/svg" viewBox="0 0 45.56 45.56">
  <defs>
    <style>
      .cls-1 {
        fill: #adadad;
      }
    </style>
  </defs>
  <path class="cls-1" d="M19.58,11.32c.52,.02,.96,.18,1.3,.49l9.19,8.67c.42,.41,.71,.89,.86,1.45,.15,.56,.15,1.12,.01,1.69-.14,.56-.43,1.04-.87,1.43l-9.19,8.65c-.38,.34-.8,.52-1.28,.54-.48,.02-.89-.14-1.25-.47-.38-.34-.57-.77-.57-1.28,0-.51,.18-.93,.55-1.28l8.95-8.44-8.95-8.44c-.36-.34-.54-.77-.55-1.27,0-.5,.18-.94,.55-1.31,.31-.31,.73-.46,1.25-.45ZM22.78,0c-3.12,0-6.06,.6-8.81,1.79-2.75,1.2-5.17,2.84-7.27,4.93S2.97,11.24,1.78,13.98s-1.78,5.68-1.78,8.8,.59,6.06,1.78,8.8c1.19,2.74,2.83,5.16,4.93,7.27,2.1,2.1,4.53,3.75,7.28,4.93s5.69,1.78,8.81,1.78,6.02-.59,8.77-1.78c2.75-1.19,5.18-2.83,7.28-4.93,2.1-2.1,3.75-4.52,4.93-7.27,1.19-2.74,1.78-5.68,1.78-8.8s-.6-6.06-1.79-8.8c-1.2-2.74-2.84-5.16-4.93-7.25-2.09-2.09-4.52-3.74-7.27-4.93-2.75-1.2-5.68-1.79-8.79-1.79Z"/>
</svg>