<?xml version="1.0" encoding="UTF-8"?>
<svg width="48px" height="48px" viewBox="0 0 48 48" version="1.1" xmlns="http://www.w3.org/2000/svg" xmlns:xlink="http://www.w3.org/1999/xlink">
    <title>Group 8</title>
    <g id="Page-1" stroke="none" stroke-width="1" fill="none" fill-rule="evenodd">
        <g id="Apple-TV" transform="translate(-887.000000, -4211.000000)">
            <g id="Group-8" transform="translate(887.000000, 4211.000000)">
                <circle id="Oval-Copy-2" fill="#D6E7FD" cx="24" cy="24" r="24"></circle>
                <g id="support" transform="translate(12.000000, 13.000000)" fill="#036AF5" fill-rule="nonzero">
                    <path d="M20.02,22.51 C20.39,22.51 20.68,22.41 20.89,22.22 C21.09,22.03 21.2,21.75 21.2,21.38 L21.2,14.72 C21.2,14.35 21.1,14.07 20.89,13.87 C20.69,13.68 20.4,13.58 20.02,13.58 L18.83,13.58 C18.16,13.58 17.63,13.75 17.26,14.1 C16.89,14.45 16.7,14.94 16.7,15.57 L16.7,20.51 C16.7,21.15 16.89,21.64 17.26,21.98 C17.63,22.33 18.15,22.5 18.83,22.5 L20.02,22.5 L20.02,22.51 Z M6.45,22.51 C7.12,22.51 7.65,22.34 8.02,21.99 C8.39,21.64 8.58,21.15 8.58,20.52 L8.58,15.58 C8.58,14.95 8.39,14.46 8.02,14.11 C7.65,13.76 7.12,13.59 6.45,13.59 L5.27,13.59 C4.9,13.59 4.61,13.69 4.41,13.88 C4.21,14.07 4.11,14.35 4.11,14.73 L4.11,21.39 C4.11,21.75 4.21,22.03 4.41,22.23 C4.61,22.42 4.9,22.52 5.27,22.52 L6.45,22.52 L6.45,22.51 Z M2.65,18.18 C2.84,18.18 2.93,18.09 2.93,17.9 L2.93,11.56 C2.93,10.25 3.16,9.06 3.63,8 C4.1,6.94 4.76,6.03 5.62,5.27 C6.48,4.51 7.5,3.93 8.69,3.52 C9.88,3.12 11.19,2.91 12.62,2.91 C14.05,2.91 15.37,3.11 16.55,3.52 C17.73,3.92 18.76,4.51 19.62,5.27 C20.48,6.03 21.15,6.94 21.61,8 C22.08,9.06 22.31,10.25 22.31,11.56 L22.31,17.9 C22.31,18.09 22.4,18.18 22.59,18.18 L23.4,18.18 C23.65,18.18 23.85,18.11 24.01,17.97 C24.17,17.83 24.25,17.64 24.25,17.41 L24.25,11.1 C24.25,9.6 23.97,8.23 23.41,6.99 C22.85,5.75 22.07,4.68 21.06,3.79 C20.05,2.89 18.86,2.21 17.49,1.72 C16.12,1.24 14.62,0.99 13,0.99 L12.23,0.99 C10.61,0.99 9.11,1.23 7.74,1.72 C6.37,2.2 5.18,2.89 4.17,3.79 C3.16,4.69 2.38,5.75 1.82,6.99 C1.26,8.23 0.98,9.6 0.98,11.1 L0.98,17.41 C0.98,17.64 1.06,17.83 1.22,17.97 C1.38,18.11 1.58,18.18 1.83,18.18 L2.64,18.18 L2.65,18.18 Z" id="Shape"></path>
                </g>
            </g>
        </g>
    </g>
</svg>